<svg width="27" height="27" viewBox="0 0 27 27" fill="none" xmlns="http://www.w3.org/2000/svg">
<path d="M13.5 27C20.9561 27 27 20.9561 27 13.5V4.05C27 2.97587 26.5733 1.94574 25.8138 1.18622C25.0543 0.426695 24.0242 0 22.95 0H14.175V5.92245C14.175 7.2738 14.2574 8.67375 14.9661 9.82395C15.4735 10.6483 16.1523 11.3538 16.9564 11.8927C17.7604 12.4316 18.671 12.7912 19.6263 12.9472L19.8849 12.989C19.9914 13.0255 20.084 13.0943 20.1495 13.1859C20.215 13.2775 20.2502 13.3874 20.2502 13.5C20.2502 13.6126 20.215 13.7225 20.1495 13.8141C20.084 13.9057 19.9914 13.9745 19.8849 14.011L19.6263 14.0528C18.2305 14.2808 16.9416 14.9415 15.9416 15.9416C14.9415 16.9416 14.2809 18.2305 14.0529 19.6263L14.011 19.8848C13.9746 19.9914 13.9057 20.0839 13.8141 20.1494C13.7225 20.2149 13.6127 20.2502 13.5 20.2502C13.3874 20.2502 13.2776 20.2149 13.186 20.1494C13.0943 20.0839 13.0255 19.9914 12.9891 19.8848L12.9472 19.6263C12.7912 18.671 12.4315 17.7604 11.8927 16.9564C11.3538 16.1523 10.6483 15.4735 9.82398 14.9661C8.67378 14.2574 7.27383 14.175 5.92248 14.175H0.0162323C0.369257 21.3172 6.27078 27 13.5 27Z" fill="#5F33E1"/>
<path d="M0 12.8251H5.92245C7.2738 12.8251 8.67375 12.7427 9.82395 12.034C10.7231 11.48 11.4799 10.7231 12.0339 9.82403C12.7426 8.67383 12.825 7.27388 12.825 5.92253V8.15817e-05H4.05C2.97587 8.15817e-05 1.94574 0.426777 1.18622 1.1863C0.426695 1.94582 0 2.97596 0 4.05008V12.8251Z" fill="#5F33E1"/>
</svg>
